<?xml version="1.0" encoding="utf-8" ?>
<svg baseProfile="tiny" height="920px" version="1.2" width="1063px" xmlns="http://www.w3.org/2000/svg" xmlns:ev="http://www.w3.org/2001/xml-events" xmlns:xlink="http://www.w3.org/1999/xlink"><defs /><path d="M 586.00,841.00 L 830.00,696.00 L 827.00,660.00 L 624.00,543.00 L 621.00,539.00 L 621.00,516.00 L 626.00,510.00 L 650.00,498.00 L 859.00,623.00 L 895.00,599.00 L 899.00,317.00 L 876.00,302.00 L 866.00,297.00 L 862.00,298.00 L 651.00,421.00 L 645.00,421.00 L 624.00,409.00 L 622.00,385.00 L 626.00,380.00 L 834.00,262.00 L 838.00,258.00 L 837.00,224.00 L 608.00,95.00 L 586.00,83.00 L 581.00,83.00 L 552.00,102.00 L 551.00,343.00 L 526.00,359.00 L 515.00,354.00 L 500.00,344.00 L 501.00,104.00 L 498.00,98.00 L 468.00,83.00 L 225.00,219.00 L 220.00,225.00 L 222.00,260.00 L 425.00,377.00 L 429.00,382.00 L 429.00,406.00 L 425.00,410.00 L 411.00,417.00 L 404.00,417.00 L 194.00,295.00 L 162.00,310.00 L 160.00,590.00 L 196.00,615.00 L 402.00,496.00 L 407.00,496.00 L 426.00,507.00 L 431.00,513.00 L 428.00,540.00 L 229.00,653.00 L 225.00,658.00 L 225.00,691.00 L 453.00,834.00 L 467.00,839.00 L 498.00,815.00 L 499.00,580.00 L 524.00,564.00 L 543.00,572.00 L 550.00,578.00 L 547.00,816.00 L 550.00,821.00 L 575.00,838.00 L 586.00,841.00 Z" fill="none" stroke="white" stroke-width="1" /><path d="M 527.00,396.00 L 238.00,231.00 L 229.00,225.00 L 229.00,221.00 L 463.00,89.00 L 473.00,87.00 L 492.00,98.00 L 494.00,102.00 L 286.00,223.00 L 524.00,362.00 L 771.00,224.00 L 770.00,220.00 L 559.00,102.00 L 561.00,98.00 L 582.00,86.00 L 830.00,223.00 L 828.00,228.00 L 814.00,236.00 L 527.00,396.00 Z" fill="none" stroke="white" stroke-width="1" /><path d="M 494.00,341.00 L 465.00,322.00 L 466.00,156.00 L 321.00,237.00 L 317.00,238.00 L 308.00,232.00 L 381.00,189.00 L 382.00,186.00 L 305.00,229.00 L 295.00,226.00 L 292.00,222.00 L 497.00,106.00 L 497.00,338.00 L 494.00,341.00 Z" fill="none" stroke="white" stroke-width="1" /><path d="M 558.00,342.00 L 553.00,339.00 L 554.00,152.00 L 557.00,106.00 L 765.00,221.00 L 760.00,228.00 L 737.00,238.00 L 590.00,156.00 L 587.00,323.00 L 558.00,342.00 Z" fill="none" stroke="white" stroke-width="1" /><path d="M 447.00,116.00 L 445.00,113.00 L 447.00,116.00 Z" fill="none" stroke="white" stroke-width="1" /><path d="M 528.00,381.00 L 536.00,374.00 L 802.00,227.00 L 805.00,223.00 L 609.00,114.00 L 610.00,118.00 L 774.00,208.00 L 795.00,220.00 L 798.00,225.00 L 525.00,377.00 L 261.00,223.00 L 264.00,218.00 L 433.00,124.00 L 443.00,117.00 L 442.00,115.00 L 256.00,220.00 L 258.00,224.00 L 325.00,265.00 L 528.00,381.00 Z" fill="none" stroke="white" stroke-width="1" /><path d="M 571.00,321.00 L 575.00,134.00 L 730.00,221.00 L 738.00,224.00 L 740.00,222.00 L 569.00,126.00 L 571.00,144.00 L 568.00,321.00 L 571.00,321.00 Z" fill="none" stroke="white" stroke-width="1" /><path d="M 481.00,306.00 L 481.00,215.00 L 486.00,207.00 L 487.00,141.00 L 474.00,133.00 L 408.00,172.00 L 472.00,137.00 L 483.00,141.00 L 484.00,202.00 L 478.00,214.00 L 477.00,251.00 L 477.00,304.00 L 481.00,306.00 Z" fill="none" stroke="white" stroke-width="1" /><path d="M 460.00,321.00 L 448.00,312.00 L 449.00,170.00 L 462.00,162.00 L 463.00,293.00 L 460.00,321.00 Z" fill="none" stroke="white" stroke-width="1" /><path d="M 594.00,321.00 L 590.00,318.00 L 593.00,162.00 L 604.00,169.00 L 604.00,311.00 L 594.00,321.00 Z" fill="none" stroke="white" stroke-width="1" /><path d="M 443.00,311.00 L 432.00,302.00 L 432.00,182.00 L 437.00,174.00 L 444.00,171.00 L 446.00,254.00 L 443.00,311.00 Z" fill="none" stroke="white" stroke-width="1" /><path d="M 610.00,312.00 L 606.00,310.00 L 608.00,171.00 L 617.00,174.00 L 621.00,181.00 L 621.00,302.00 L 610.00,312.00 Z" fill="none" stroke="white" stroke-width="1" /><path d="M 427.00,302.00 L 323.00,241.00 L 327.00,236.00 L 427.00,180.00 L 430.00,184.00 L 427.00,302.00 Z" fill="none" stroke="white" stroke-width="1" /><path d="M 626.00,303.00 L 623.00,301.00 L 625.00,180.00 L 733.00,240.00 L 726.00,247.00 L 626.00,303.00 Z" fill="none" stroke="white" stroke-width="1" /><path d="M 523.00,430.00 L 227.00,260.00 L 223.00,255.00 L 223.00,230.00 L 227.00,227.00 L 235.00,231.00 L 518.00,395.00 L 525.00,401.00 L 523.00,430.00 Z" fill="none" stroke="white" stroke-width="1" /><path d="M 533.00,430.00 L 527.00,427.00 L 527.00,408.00 L 528.00,400.00 L 534.00,395.00 L 823.00,233.00 L 831.00,229.00 L 834.00,231.00 L 835.00,256.00 L 832.00,260.00 L 533.00,430.00 Z" fill="none" stroke="white" stroke-width="1" /><path d="M 743.00,296.00 L 824.00,250.00 L 817.00,250.00 L 739.00,295.00 L 743.00,296.00 Z" fill="none" stroke="white" stroke-width="1" /><path d="M 469.00,383.00 L 467.00,379.00 L 361.00,317.00 L 347.00,316.00 L 339.00,312.00 L 307.00,293.00 L 293.00,279.00 L 244.00,251.00 L 241.00,252.00 L 291.00,281.00 L 302.00,293.00 L 328.00,309.00 L 346.00,319.00 L 362.00,321.00 L 469.00,383.00 Z" fill="none" stroke="white" stroke-width="1" /><path d="M 468.00,491.00 L 353.00,425.00 L 167.00,312.00 L 194.00,298.00 L 408.00,421.00 L 492.00,474.00 L 468.00,491.00 Z" fill="none" stroke="white" stroke-width="1" /><path d="M 587.00,493.00 L 581.00,492.00 L 558.00,476.00 L 863.00,301.00 L 891.00,315.00 L 889.00,319.00 L 587.00,493.00 Z" fill="none" stroke="white" stroke-width="1" /><path d="M 651.00,348.00 L 728.00,304.00 L 724.00,303.00 L 695.00,319.00 L 691.00,324.00 L 649.00,344.00 L 648.00,348.00 L 651.00,348.00 Z" fill="none" stroke="white" stroke-width="1" /><path d="M 222.00,331.00 L 198.00,314.00 L 194.00,315.00 L 222.00,331.00 Z" fill="none" stroke="white" stroke-width="1" /><path d="M 586.00,478.00 L 867.00,316.00 L 864.00,315.00 L 583.00,476.00 L 586.00,478.00 Z" fill="none" stroke="white" stroke-width="1" /><path d="M 461.00,834.00 L 228.00,690.00 L 228.00,665.00 L 233.00,662.00 L 431.00,782.00 L 434.00,510.00 L 194.00,368.00 L 193.00,606.00 L 189.00,608.00 L 168.00,594.00 L 163.00,589.00 L 166.00,318.00 L 464.00,494.00 L 464.00,789.00 L 461.00,834.00 Z" fill="none" stroke="white" stroke-width="1" /><path d="M 589.00,836.00 L 574.00,834.00 L 550.00,815.00 L 554.00,483.00 L 559.00,481.00 L 580.00,494.00 L 584.00,500.00 L 581.00,715.00 L 583.00,817.00 L 587.00,497.00 L 893.00,320.00 L 896.00,329.00 L 892.00,597.00 L 867.00,615.00 L 862.00,614.00 L 866.00,384.00 L 864.00,370.00 L 619.00,512.00 L 617.00,783.00 L 821.00,668.00 L 825.00,668.00 L 827.00,673.00 L 827.00,694.00 L 821.00,700.00 L 589.00,836.00 Z" fill="none" stroke="white" stroke-width="1" /><path d="M 467.00,476.00 L 468.00,473.00 L 404.00,437.00 L 373.00,416.00 L 235.00,335.00 L 226.00,333.00 L 467.00,476.00 Z" fill="none" stroke="white" stroke-width="1" /><path d="M 185.00,441.00 L 180.00,433.00 L 182.00,347.00 L 257.00,390.00 L 261.00,389.00 L 179.00,342.00 L 177.00,435.00 L 185.00,441.00 Z" fill="none" stroke="white" stroke-width="1" /><path d="M 882.00,484.00 L 883.00,452.00 L 877.00,444.00 L 877.00,438.00 L 884.00,423.00 L 886.00,342.00 L 839.00,366.00 L 767.00,409.00 L 879.00,348.00 L 881.00,422.00 L 874.00,436.00 L 874.00,445.00 L 880.00,454.00 L 879.00,482.00 L 882.00,484.00 Z" fill="none" stroke="white" stroke-width="1" /><path d="M 541.00,411.00 L 625.00,364.00 L 631.00,358.00 L 558.00,396.00 L 542.00,407.00 L 541.00,411.00 Z" fill="none" stroke="white" stroke-width="1" /><path d="M 202.00,609.00 L 196.00,607.00 L 196.00,376.00 L 199.00,373.00 L 208.00,378.00 L 211.00,384.00 L 210.00,424.00 L 215.00,433.00 L 215.00,460.00 L 209.00,469.00 L 210.00,499.00 L 213.00,493.00 L 212.00,470.00 L 218.00,460.00 L 218.00,432.00 L 213.00,423.00 L 214.00,385.00 L 221.00,386.00 L 226.00,391.00 L 227.00,558.00 L 369.00,477.00 L 379.00,479.00 L 400.00,493.00 L 332.00,534.00 L 327.00,532.00 L 326.00,521.00 L 323.00,519.00 L 324.00,536.00 L 320.00,541.00 L 202.00,609.00 Z" fill="none" stroke="white" stroke-width="1" /><path d="M 857.00,617.00 L 700.00,525.00 L 657.00,499.00 L 655.00,495.00 L 682.00,480.00 L 827.00,564.00 L 830.00,394.00 L 843.00,386.00 L 845.00,486.00 L 842.00,586.00 L 837.00,587.00 L 792.00,562.00 L 797.00,568.00 L 842.00,591.00 L 846.00,582.00 L 847.00,554.00 L 848.00,384.00 L 861.00,376.00 L 863.00,386.00 L 857.00,617.00 Z" fill="none" stroke="white" stroke-width="1" /><path d="M 440.00,436.00 L 414.00,421.00 L 416.00,417.00 L 428.00,411.00 L 451.00,419.00 L 432.00,405.00 L 434.00,384.00 L 463.00,402.00 L 463.00,422.00 L 440.00,436.00 Z" fill="none" stroke="white" stroke-width="1" /><path d="M 615.00,440.00 L 589.00,425.00 L 588.00,405.00 L 593.00,399.00 L 617.00,387.00 L 619.00,406.00 L 598.00,421.00 L 622.00,411.00 L 641.00,424.00 L 615.00,440.00 Z" fill="none" stroke="white" stroke-width="1" /><path d="M 516.00,410.00 L 489.00,391.00 L 482.00,390.00 L 516.00,410.00 Z" fill="none" stroke="white" stroke-width="1" /><path d="M 233.00,517.00 L 229.00,515.00 L 230.00,393.00 L 338.00,456.00 L 334.00,461.00 L 233.00,517.00 Z" fill="none" stroke="white" stroke-width="1" /><path d="M 824.00,523.00 L 716.00,460.00 L 822.00,397.00 L 827.00,399.00 L 824.00,523.00 Z" fill="none" stroke="white" stroke-width="1" /><path d="M 431.00,493.00 L 433.00,490.00 L 425.00,484.00 L 290.00,405.00 L 284.00,404.00 L 431.00,493.00 Z" fill="none" stroke="white" stroke-width="1" /><path d="M 475.00,456.00 L 466.00,454.00 L 444.00,440.00 L 446.00,436.00 L 465.00,426.00 L 468.00,403.00 L 497.00,421.00 L 496.00,443.00 L 475.00,456.00 Z" fill="none" stroke="white" stroke-width="1" /><path d="M 580.00,460.00 L 553.00,445.00 L 552.00,425.00 L 556.00,420.00 L 584.00,406.00 L 586.00,427.00 L 608.00,443.00 L 580.00,460.00 Z" fill="none" stroke="white" stroke-width="1" /><path d="M 741.00,429.00 L 761.00,418.00 L 764.00,412.00 L 738.00,428.00 L 741.00,429.00 Z" fill="none" stroke="white" stroke-width="1" /><path d="M 473.00,444.00 L 483.00,427.00 L 482.00,424.00 L 471.00,441.00 L 473.00,444.00 Z" fill="none" stroke="white" stroke-width="1" /><path d="M 549.00,500.00 L 528.00,489.00 L 504.00,499.00 L 499.00,497.00 L 499.00,475.00 L 477.00,459.00 L 499.00,445.00 L 502.00,424.00 L 522.00,435.00 L 529.00,435.00 L 547.00,426.00 L 550.00,447.00 L 573.00,462.00 L 552.00,475.00 L 549.00,500.00 Z" fill="none" stroke="white" stroke-width="1" /><path d="M 582.00,445.00 L 583.00,442.00 L 569.00,427.00 L 569.00,432.00 L 582.00,445.00 Z" fill="none" stroke="white" stroke-width="1" /><path d="M 603.00,775.00 L 606.00,670.00 L 605.00,612.00 L 600.00,606.00 L 603.00,592.00 L 603.00,507.00 L 696.00,449.00 L 600.00,505.00 L 600.00,591.00 L 597.00,596.00 L 597.00,607.00 L 602.00,613.00 L 600.00,773.00 L 603.00,775.00 Z" fill="none" stroke="white" stroke-width="1" /><path d="M 176.00,570.00 L 176.00,482.00 L 177.00,465.00 L 181.00,456.00 L 174.00,464.00 L 173.00,570.00 L 176.00,570.00 Z" fill="none" stroke="white" stroke-width="1" /><path d="M 234.00,535.00 L 229.00,533.00 L 229.00,524.00 L 236.00,518.00 L 341.00,460.00 L 353.00,465.00 L 234.00,535.00 Z" fill="none" stroke="white" stroke-width="1" /><path d="M 824.00,558.00 L 699.00,487.00 L 686.00,477.00 L 698.00,471.00 L 731.00,491.00 L 745.00,494.00 L 814.00,537.00 L 809.00,529.00 L 744.00,490.00 L 731.00,488.00 L 702.00,468.00 L 713.00,463.00 L 793.00,509.00 L 825.00,529.00 L 824.00,558.00 Z" fill="none" stroke="white" stroke-width="1" /><path d="M 234.00,552.00 L 229.00,550.00 L 229.00,542.00 L 237.00,535.00 L 356.00,468.00 L 367.00,473.00 L 361.00,479.00 L 234.00,552.00 Z" fill="none" stroke="white" stroke-width="1" /><path d="M 471.00,833.00 L 466.00,831.00 L 468.00,496.00 L 494.00,479.00 L 497.00,505.00 L 495.00,814.00 L 471.00,833.00 Z" fill="none" stroke="white" stroke-width="1" /><path d="M 503.00,540.00 L 499.00,538.00 L 502.00,503.00 L 528.00,492.00 L 551.00,507.00 L 551.00,536.00 L 548.00,539.00 L 526.00,527.00 L 503.00,540.00 Z" fill="none" stroke="white" stroke-width="1" /><path d="M 347.00,511.00 L 371.00,495.00 L 345.00,507.00 L 344.00,510.00 L 347.00,511.00 Z" fill="none" stroke="white" stroke-width="1" /><path d="M 726.00,524.00 L 694.00,502.00 L 680.00,497.00 L 726.00,524.00 Z" fill="none" stroke="white" stroke-width="1" /><path d="M 443.00,546.00 L 445.00,534.00 L 451.00,525.00 L 452.00,502.00 L 448.00,504.00 L 449.00,521.00 L 443.00,531.00 L 443.00,546.00 Z" fill="none" stroke="white" stroke-width="1" /><path d="M 483.00,533.00 L 485.00,503.00 L 482.00,502.00 L 483.00,533.00 Z" fill="none" stroke="white" stroke-width="1" /><path d="M 570.00,570.00 L 572.00,506.00 L 569.00,505.00 L 567.00,568.00 L 570.00,570.00 Z" fill="none" stroke="white" stroke-width="1" /><path d="M 881.00,592.00 L 882.00,506.00 L 879.00,506.00 L 877.00,589.00 L 881.00,592.00 Z" fill="none" stroke="white" stroke-width="1" /><path d="M 511.00,521.00 L 527.00,512.00 L 508.00,518.00 L 511.00,521.00 Z" fill="none" stroke="white" stroke-width="1" /><path d="M 212.00,553.00 L 213.00,521.00 L 210.00,520.00 L 209.00,537.00 L 212.00,553.00 Z" fill="none" stroke="white" stroke-width="1" /><path d="M 766.00,550.00 L 766.00,546.00 L 734.00,528.00 L 739.00,535.00 L 766.00,550.00 Z" fill="none" stroke="white" stroke-width="1" /><path d="M 213.00,587.00 L 308.00,531.00 L 300.00,532.00 L 210.00,583.00 L 213.00,587.00 Z" fill="none" stroke="white" stroke-width="1" /><path d="M 504.00,573.00 L 499.00,570.00 L 499.00,546.00 L 524.00,533.00 L 525.00,560.00 L 504.00,573.00 Z" fill="none" stroke="white" stroke-width="1" /><path d="M 548.00,572.00 L 528.00,559.00 L 530.00,533.00 L 551.00,547.00 L 548.00,572.00 Z" fill="none" stroke="white" stroke-width="1" /><path d="M 427.00,776.00 L 263.00,678.00 L 234.00,660.00 L 232.00,656.00 L 429.00,544.00 L 428.00,575.00 L 287.00,656.00 L 288.00,660.00 L 426.00,743.00 L 429.00,747.00 L 427.00,776.00 Z" fill="none" stroke="white" stroke-width="1" /><path d="M 624.00,777.00 L 619.00,775.00 L 619.00,748.00 L 622.00,744.00 L 764.00,663.00 L 624.00,579.00 L 621.00,575.00 L 623.00,563.00 L 635.00,568.00 L 642.00,577.00 L 645.00,576.00 L 639.00,567.00 L 621.00,557.00 L 622.00,546.00 L 822.00,661.00 L 818.00,667.00 L 624.00,777.00 Z" fill="none" stroke="white" stroke-width="1" /><path d="M 512.00,554.00 L 513.00,551.00 L 510.00,551.00 L 512.00,554.00 Z" fill="none" stroke="white" stroke-width="1" /><path d="M 449.00,709.00 L 449.00,603.00 L 450.00,581.00 L 455.00,572.00 L 453.00,557.00 L 452.00,572.00 L 447.00,580.00 L 446.00,606.00 L 446.00,709.00 L 449.00,709.00 Z" fill="none" stroke="white" stroke-width="1" /><path d="M 480.00,809.00 L 482.00,786.00 L 489.00,774.00 L 489.00,767.00 L 485.00,762.00 L 487.00,569.00 L 485.00,560.00 L 482.00,561.00 L 482.00,764.00 L 486.00,773.00 L 480.00,783.00 L 478.00,808.00 L 480.00,809.00 Z" fill="none" stroke="white" stroke-width="1" /><path d="M 404.00,747.00 L 358.00,716.00 L 342.00,710.00 L 335.00,701.00 L 274.00,666.00 L 264.00,657.00 L 408.00,573.00 L 415.00,568.00 L 413.00,566.00 L 273.00,647.00 L 259.00,658.00 L 260.00,661.00 L 331.00,702.00 L 340.00,712.00 L 356.00,718.00 L 404.00,747.00 Z" fill="none" stroke="white" stroke-width="1" /><path d="M 321.00,675.00 L 292.00,658.00 L 419.00,582.00 L 427.00,578.00 L 431.00,581.00 L 430.00,609.00 L 427.00,613.00 L 321.00,675.00 Z" fill="none" stroke="white" stroke-width="1" /><path d="M 733.00,679.00 L 726.00,678.00 L 625.00,615.00 L 620.00,607.00 L 623.00,598.00 L 647.00,613.00 L 649.00,611.00 L 623.00,594.00 L 620.00,591.00 L 620.00,584.00 L 628.00,584.00 L 757.00,662.00 L 754.00,667.00 L 733.00,679.00 Z" fill="none" stroke="white" stroke-width="1" /><path d="M 743.00,634.00 L 673.00,589.00 L 660.00,586.00 L 743.00,634.00 Z" fill="none" stroke="white" stroke-width="1" /><path d="M 570.00,592.00 L 568.00,590.00 L 570.00,592.00 Z" fill="none" stroke="white" stroke-width="1" /><path d="M 415.00,604.00 L 413.00,601.00 L 415.00,604.00 Z" fill="none" stroke="white" stroke-width="1" /><path d="M 563.00,740.00 L 564.00,721.00 L 569.00,713.00 L 570.00,605.00 L 567.00,614.00 L 566.00,712.00 L 561.00,720.00 L 563.00,740.00 Z" fill="none" stroke="white" stroke-width="1" /><path d="M 318.00,660.00 L 387.00,620.00 L 394.00,613.00 L 321.00,655.00 L 318.00,660.00 Z" fill="none" stroke="white" stroke-width="1" /><path d="M 427.00,739.00 L 325.00,677.00 L 426.00,616.00 L 430.00,618.00 L 427.00,739.00 Z" fill="none" stroke="white" stroke-width="1" /><path d="M 625.00,740.00 L 620.00,738.00 L 622.00,618.00 L 724.00,680.00 L 720.00,686.00 L 625.00,740.00 Z" fill="none" stroke="white" stroke-width="1" /><path d="M 733.00,665.00 L 673.00,624.00 L 669.00,625.00 L 726.00,663.00 L 733.00,665.00 Z" fill="none" stroke="white" stroke-width="1" /><path d="M 752.00,692.00 L 763.00,683.00 L 792.00,668.00 L 795.00,663.00 L 768.00,647.00 L 769.00,651.00 L 790.00,664.00 L 754.00,685.00 L 750.00,689.00 L 752.00,692.00 Z" fill="none" stroke="white" stroke-width="1" /><path d="M 447.00,809.00 L 449.00,730.00 L 446.00,738.00 L 445.00,802.00 L 441.00,803.00 L 374.00,758.00 L 357.00,754.00 L 244.00,683.00 L 240.00,683.00 L 240.00,686.00 L 355.00,756.00 L 372.00,760.00 L 447.00,809.00 Z" fill="none" stroke="white" stroke-width="1" /><path d="M 750.00,728.00 L 814.00,689.00 L 806.00,690.00 L 749.00,724.00 L 747.00,727.00 L 750.00,728.00 Z" fill="none" stroke="white" stroke-width="1" /><path d="M 634.00,761.00 L 690.00,729.00 L 702.00,718.00 L 726.00,706.00 L 730.00,701.00 L 700.00,716.00 L 686.00,728.00 L 631.00,760.00 L 634.00,761.00 Z" fill="none" stroke="white" stroke-width="1" /><path d="M 604.00,810.00 L 731.00,737.00 L 719.00,740.00 L 626.00,795.00 L 600.00,807.00 L 604.00,810.00 Z" fill="none" stroke="white" stroke-width="1" /><path d="M 568.00,813.00 L 569.00,761.00 L 566.00,763.00 L 565.00,811.00 L 568.00,813.00 Z" fill="none" stroke="white" stroke-width="1" /></svg>